<svg width="8" height="8" viewBox="0 0 8 8" fill="none"
  xmlns="http://www.w3.org/2000/svg">
  <path d="M3.99996 0.666992C3.63329 0.666992 3.33329 0.966992 3.33329 1.33366V3.33366H1.33329C0.966626 3.33366 0.666626 3.63366 0.666626 4.00033C0.666626 4.36699 0.966626 4.66699 1.33329 4.66699H3.33329V6.66699C3.33329 7.03366 3.63329 7.33366 3.99996 7.33366C4.36663 7.33366 4.66663 7.03366 4.66663 6.66699V4.66699H6.66663C7.03329 4.66699 7.33329 4.36699 7.33329 4.00033C7.33329 3.63366 7.03329 3.33366 6.66663 3.33366H4.66663V1.33366C4.66663 0.966992 4.36663 0.666992 3.99996 0.666992Z" fill="#9873FF"/>
</svg>
